<?xml version="1.0" encoding="utf-8"?>
<!-- Generator: Adobe Illustrator 18.1.0, SVG Export Plug-In . SVG Version: 6.00 Build 0)  -->
<svg version="1.1" xmlns="http://www.w3.org/2000/svg" xmlns:xlink="http://www.w3.org/1999/xlink" x="0px" y="0px"
	 viewBox="0 0 24 24" enable-background="new 0 0 24 24" xml:space="preserve">
<g id="Icon_Name">
</g>
<g id="Icons_24_005e95">
	<g>
		<path fill="#005E95" d="M12,2.3c-5.3,0-9.7,4.3-9.7,9.7c0,5.3,4.3,9.6,9.7,9.6s9.7-4.3,9.7-9.6C21.7,6.7,17.3,2.3,12,2.3z
			 M13,20.2V18h-2v2.2c-3.7-0.5-6.7-3.4-7.2-7.2H6v-2H3.8C4.3,7.3,7.3,4.3,11,3.8V6h2V3.8c3.7,0.5,6.7,3.4,7.2,7.2H18v2h2.2
			C19.7,16.7,16.7,19.7,13,20.2z"/>
	</g>
	<rect fill="none" width="24" height="24"/>
	<rect fill="none" width="24" height="24"/>
</g>
</svg>
