<?xml version="1.0" encoding="utf-8"?>
<!-- Generator: Adobe Illustrator 18.1.0, SVG Export Plug-In . SVG Version: 6.00 Build 0)  -->
<svg version="1.1" xmlns="http://www.w3.org/2000/svg" xmlns:xlink="http://www.w3.org/1999/xlink" x="0px" y="0px"
	 viewBox="0 0 24 24" enable-background="new 0 0 24 24" xml:space="preserve">
<g id="Icon_Name">
</g>
<g id="Icons_24_4c4c4c">
	<rect fill="none" width="24" height="24"/>
	<rect fill="none" width="24" height="24"/>
	<path fill="#4C4C4C" d="M13,3v8h8V3H13z M20,10h-2.2c0-0.2,0-0.4,0-0.7c0-0.4,0.2-1.1,0.4-1.2C18.4,8.1,18.5,8,18.6,8
		c0.2-0.1,0.5-0.1,0.6-0.4c0.1-0.3,0.1-0.6,0-0.9c0.1-0.1,0.4-0.2,0.8-0.2V10z M20,5.6c-0.4,0-1.1,0.1-1.5,0.6
		c-0.2,0.2-0.2,0.5-0.1,0.8c0,0.1,0,0.2,0.1,0.2c0,0-0.1,0-0.1,0c-0.1,0-0.3,0.1-0.5,0.2C17.1,7.7,17,9,17,9.2c0,0.1-0.1,0.5,0,0.8
		h-1.2c0.1-0.3,0.1-0.6,0.1-0.7c0-0.3,0.1-1.9-0.9-2.4c0.1,0,0.2-0.1,0.2-0.1c1.5-0.1,1.9-1.4,2-2.1S18.7,4,18.7,4H20V5.6z M13,13
		v7.9V21h1h2.8H21v-3.8V14v-1H13z M14,20v-6h0c0,0,0,0,0,0l2.8,1.7l-1.5,1.8c-0.1,0.1-0.1,0.3-0.1,0.5l1,2H14z M20,16.6L15.7,14H20
		V16.6z M3,13v8h8v-8H3z M4,14h6v0.1c-0.3,0.4-0.4,0.8-0.4,0.8c0,0-0.2,0.6-0.9,0.8c-0.7,0.1-1,0.6-1.2,1c-0.8-0.3-1.6-0.1-2.2,0.4
		c-0.6,0.6-0.8,1.7-0.3,2.6c0,0.1,0.1,0.2,0.1,0.3H4V14z M3,3v6.9V11h8V3H3z M4,10V6.5C5.3,6.1,6.1,5,6.4,4.3
		c0.1,0.1,0.1,0.3,0.2,0.4c0.2,0.7,0.5,1.7,1,2.7C6.9,8.1,6.4,8.9,6,10H4z M6.9,10C7.2,9.3,7.6,8.7,8,8.2c0.5,0.7,1.2,1.3,2,1.6V10
		H6.9z"/>
</g>
</svg>
