<?xml version="1.0" encoding="utf-8"?>
<!-- Generator: Adobe Illustrator 16.0.0, SVG Export Plug-In . SVG Version: 6.00 Build 0)  -->
<!DOCTYPE svg PUBLIC "-//W3C//DTD SVG 1.1//EN" "http://www.w3.org/Graphics/SVG/1.1/DTD/svg11.dtd">
<svg version="1.1" xmlns="http://www.w3.org/2000/svg" xmlns:xlink="http://www.w3.org/1999/xlink" x="0px" y="0px" width="19px"
	 height="36px" viewBox="0 0 19 36" enable-background="new 0 0 19 36" xml:space="preserve">
<g id="Layer_1">
</g>
<g id="Colors">
	<rect y="-0.5" fill="none" width="19" height="36"/>
	<path fill="#145145" d="M19,6.812C19,1.531,14.746-0.5,9.5-0.5S0,1.531,0,6.812l0,0v19.125L9.5,35.5l9.5-9.562V6.818
		C19,6.816,19,6.814,19,6.812z"/>
	<path fill="#42A56C" d="M1,25.525V6.812C1,1.32,6.326,0.5,9.5,0.5S18,1.32,18,6.812v18.713l-8.5,8.556L1,25.525z"/>
	<path fill="#399155" d="M10,1.509v30.649l7-7.045V6.812C17,2.634,13.307,1.6,10,1.509z"/>
</g>
<g id="Icons">
</g>
</svg>
