<?xml version="1.0" encoding="utf-8"?>
<!-- Generator: Adobe Illustrator 18.1.0, SVG Export Plug-In . SVG Version: 6.00 Build 0)  -->
<svg version="1.1" xmlns="http://www.w3.org/2000/svg" xmlns:xlink="http://www.w3.org/1999/xlink" x="0px" y="0px"
	 viewBox="0 0 24 24" enable-background="new 0 0 24 24" xml:space="preserve">
<g id="Icon_Name">
</g>
<g id="Icons_24_929497_disabled" display="none">
	<polygon display="inline" fill="#929497" points="18.2,7.1 17,5.8 12,10.8 7,5.8 5.8,7.1 10.8,12 5.8,17 7,18.2 12,13.2 17,18.2 
		18.2,17 13.2,12 	"/>
</g>
<g id="Icons_24_4c4c4c" display="none">
	<polygon display="inline" fill="#4C4C4C" points="18.2,7.1 17,5.8 12,10.8 7,5.8 5.8,7.1 10.8,12 5.8,17 7,18.2 12,13.2 17,18.2 
		18.2,17 13.2,12 	"/>
</g>
<g id="Icons_24_005e95" display="none">
	<polygon display="inline" fill="#005E95" points="18.2,7.1 17,5.8 12,10.8 7,5.8 5.8,7.1 10.8,12 5.8,17 7,18.2 12,13.2 17,18.2 
		18.2,17 13.2,12 	"/>
</g>
<g id="Icons_24_ffffff">
	<polygon fill="#FFFFFF" points="18.2,7.1 17,5.8 12,10.8 7,5.8 5.8,7.1 10.8,12 5.8,17 7,18.2 12,13.2 17,18.2 18.2,17 13.2,12 	
		"/>
</g>
</svg>
