<?xml version="1.0" encoding="utf-8"?>
<!-- Generator: Adobe Illustrator 18.1.0, SVG Export Plug-In . SVG Version: 6.00 Build 0)  -->
<svg version="1.1" xmlns="http://www.w3.org/2000/svg" xmlns:xlink="http://www.w3.org/1999/xlink" x="0px" y="0px"
	 viewBox="0 0 24 24" enable-background="new 0 0 24 24" xml:space="preserve">
<g id="Icon_Name">
</g>
<g id="Icons_24_929497_disabled" display="none">
	<rect display="inline" fill="none" width="24" height="24"/>
	<path display="inline" fill="#929497" d="M10.2,5h2.6l7,7l-7,7h-2.6l7-7L10.2,5z M4,5l7,7l-7,7h2.6l7-7l-7-7H4z"/>
</g>
<g id="Icons_24_4c4c4c" display="none">
	<rect display="inline" fill="none" width="24" height="24"/>
	<path display="inline" fill="#4C4C4C" d="M10.2,5h2.6l7,7l-7,7h-2.6l7-7L10.2,5z M4,5l7,7l-7,7h2.6l7-7l-7-7H4z"/>
</g>
<g id="Icons_24_005e95" display="none">
	<rect display="inline" fill="none" width="24" height="24"/>
	<path display="inline" fill="#005E95" d="M10.2,5h2.6l7,7l-7,7h-2.6l7-7L10.2,5z M4,5l7,7l-7,7h2.6l7-7l-7-7H4z"/>
</g>
<g id="Icons_24_ffffff">
	<rect fill="none" width="24" height="24"/>
	<path fill="#FFFFFF" d="M10.2,5h2.6l7,7l-7,7h-2.6l7-7L10.2,5z M4,5l7,7l-7,7h2.6l7-7l-7-7H4z"/>
</g>
</svg>
