<?xml version="1.0" encoding="utf-8"?>
<!-- Generator: Adobe Illustrator 18.1.0, SVG Export Plug-In . SVG Version: 6.00 Build 0)  -->
<svg version="1.1" xmlns="http://www.w3.org/2000/svg" xmlns:xlink="http://www.w3.org/1999/xlink" x="0px" y="0px"
	 viewBox="0 0 24 24" enable-background="new 0 0 24 24" xml:space="preserve">
<g id="Icon_Name">
</g>
<g id="Icons_24_929497_disabled" display="none">
	<rect display="inline" fill="none" width="24" height="24"/>
	<rect display="inline" fill="none" width="24" height="24"/>
	<rect display="inline" fill="none" width="24" height="24"/>
	<rect display="inline" fill="none" width="24" height="24"/>
	<g display="inline">
		
			<rect x="13.7" y="14.1" transform="matrix(-0.7071 -0.7071 0.7071 -0.7071 14.6816 35.5601)" fill="#929497" width="2" height="1.3"/>
		<path fill="#929497" d="M18.9,19.8c-0.3,0.3-0.7,0.3-0.9,0l-3.1-3.1c-0.3-0.3-0.3-0.7,0-0.9l0.9-0.9c0.3-0.3,0.7-0.3,0.9,0
			l3.1,3.1c0.3,0.3,0.3,0.7,0,0.9L18.9,19.8z"/>
		<path fill="#929497" d="M14.2,5.8c-2.3-2.3-6.1-2.3-8.5,0c-2.3,2.3-2.3,6.1,0,8.5c2.3,2.3,6.1,2.3,8.5,0
			C16.6,11.9,16.6,8.1,14.2,5.8z M13,13c-1.7,1.7-4.4,1.7-6,0c-1.7-1.7-1.7-4.4,0-6c1.7-1.7,4.4-1.7,6,0C14.7,8.7,14.7,11.3,13,13z"
			/>
	</g>
</g>
<g id="Icons_24_4c4c4c" display="none">
	<rect display="inline" fill="none" width="24" height="24"/>
	<rect display="inline" fill="none" width="24" height="24"/>
	<rect display="inline" fill="none" width="24" height="24"/>
	<rect display="inline" fill="none" width="24" height="24"/>
	<g display="inline">
		
			<rect x="13.7" y="14.1" transform="matrix(-0.7071 -0.7071 0.7071 -0.7071 14.6816 35.5601)" fill="#4C4C4C" width="2" height="1.3"/>
		<path fill="#4C4C4C" d="M18.9,19.8c-0.3,0.3-0.7,0.3-0.9,0l-3.1-3.1c-0.3-0.3-0.3-0.7,0-0.9l0.9-0.9c0.3-0.3,0.7-0.3,0.9,0
			l3.1,3.1c0.3,0.3,0.3,0.7,0,0.9L18.9,19.8z"/>
		<path fill="#4C4C4C" d="M14.2,5.8c-2.3-2.3-6.1-2.3-8.5,0c-2.3,2.3-2.3,6.1,0,8.5c2.3,2.3,6.1,2.3,8.5,0
			C16.6,11.9,16.6,8.1,14.2,5.8z M13,13c-1.7,1.7-4.4,1.7-6,0c-1.7-1.7-1.7-4.4,0-6c1.7-1.7,4.4-1.7,6,0C14.7,8.7,14.7,11.3,13,13z"
			/>
	</g>
</g>
<g id="Icons_24_005e95" display="none">
	<rect display="inline" fill="none" width="24" height="24"/>
	<rect display="inline" fill="none" width="24" height="24"/>
	<rect display="inline" fill="none" width="24" height="24"/>
	<rect display="inline" fill="none" width="24" height="24"/>
	<g display="inline">
		
			<rect x="13.7" y="14.1" transform="matrix(-0.7071 -0.7071 0.7071 -0.7071 14.6816 35.5601)" fill="#005E95" width="2" height="1.3"/>
		<path fill="#005E95" d="M18.9,19.8c-0.3,0.3-0.7,0.3-0.9,0l-3.1-3.1c-0.3-0.3-0.3-0.7,0-0.9l0.9-0.9c0.3-0.3,0.7-0.3,0.9,0
			l3.1,3.1c0.3,0.3,0.3,0.7,0,0.9L18.9,19.8z"/>
		<path fill="#005E95" d="M14.2,5.8c-2.3-2.3-6.1-2.3-8.5,0c-2.3,2.3-2.3,6.1,0,8.5c2.3,2.3,6.1,2.3,8.5,0
			C16.6,11.9,16.6,8.1,14.2,5.8z M13,13c-1.7,1.7-4.4,1.7-6,0c-1.7-1.7-1.7-4.4,0-6c1.7-1.7,4.4-1.7,6,0C14.7,8.7,14.7,11.3,13,13z"
			/>
	</g>
</g>
<g id="Icons_24_ffffff">
	<rect fill="none" width="24" height="24"/>
	<rect fill="none" width="24" height="24"/>
	<rect fill="none" width="24" height="24"/>
	<rect fill="none" width="24" height="24"/>
	<g>
		
			<rect x="13.7" y="14.1" transform="matrix(-0.7071 -0.7071 0.7071 -0.7071 14.6816 35.5601)" fill="#FFFFFF" width="2" height="1.3"/>
		<path fill="#FFFFFF" d="M18.9,19.8c-0.3,0.3-0.7,0.3-0.9,0l-3.1-3.1c-0.3-0.3-0.3-0.7,0-0.9l0.9-0.9c0.3-0.3,0.7-0.3,0.9,0
			l3.1,3.1c0.3,0.3,0.3,0.7,0,0.9L18.9,19.8z"/>
		<path fill="#FFFFFF" d="M14.2,5.8c-2.3-2.3-6.1-2.3-8.5,0c-2.3,2.3-2.3,6.1,0,8.5c2.3,2.3,6.1,2.3,8.5,0
			C16.6,11.9,16.6,8.1,14.2,5.8z M13,13c-1.7,1.7-4.4,1.7-6,0c-1.7-1.7-1.7-4.4,0-6c1.7-1.7,4.4-1.7,6,0C14.7,8.7,14.7,11.3,13,13z"
			/>
	</g>
</g>
</svg>
