<?xml version="1.0" standalone="no"?>
<!DOCTYPE svg PUBLIC "-//W3C//DTD SVG 1.1//EN" "http://www.w3.org/Graphics/SVG/1.1/DTD/svg11.dtd" >
<svg xmlns="http://www.w3.org/2000/svg">
<metadata>
<json>
{
	"fontFamily": "CalciteWebCoreIcons",
	"majorVersion": 1,
	"minorVersion": 0,
	"fontURL": "http://www.esri.com/",
	"description": "CalciteWebCoreIcons\nFont generated by IcoMoon.",
	"copyright": "Esri",
	"designerURL": "http://github.com/esri",
	"license": "Apache License – 2.0",
	"licenseURL": "http://www.apache.org/licenses/LICENSE-2.0",
	"version": "Version 1.0",
	"fontId": "CalciteWebCoreIcons",
	"psName": "CalciteWebCoreIcons",
	"subFamily": "Regular",
	"fullName": "CalciteWebCoreIcons"
}
</json>
</metadata>
<defs>
<font id="CalciteWebCoreIcons" horiz-adv-x="1024">
<font-face units-per-em="1024" ascent="960" descent="-64" />
<missing-glyph horiz-adv-x="1024" />
<glyph unicode="&#x20;" d="" horiz-adv-x="512" />
<glyph unicode="&#xe600;" d="M588.939 448l316.82-316.821-76.939-76.94-316.821 316.821-316.821-316.821-76.94 76.94 316.821 316.821-316.821 316.758 76.94 76.939 316.821-316.758 316.821 316.82 76.939-77.001-316.82-316.758z" data-tags="Close" />
<glyph unicode="&#xe601;" d="M896 704h-768c-35.2 0-64 28.8-64 64v0c0 35.2 28.8 64 64 64h768c35.2 0 64-28.8 64-64v0c0-35.2-28.8-64-64-64zM896 384h-768c-35.2 0-64 28.8-64 64v0c0 35.2 28.8 64 64 64h768c35.2 0 64-28.8 64-64v0c0-35.2-28.8-64-64-64zM896 64h-768c-35.2 0-64 28.8-64 64v0c0 35.2 28.8 64 64 64h768c35.2 0 64-28.8 64-64v0c0-35.2-28.8-64-64-64z" data-tags="hDrag" />
<glyph unicode="&#xe602;" d="M768 64v768c0 35.2 28.8 64 64 64v0c35.2 0 64-28.8 64-64v-768c0-35.2-28.8-64-64-64v0c-35.2 0-64 28.8-64 64zM448 64v768c0 35.2 28.8 64 64 64v0c35.2 0 64-28.8 64-64v-768c0-35.2-28.8-64-64-64v0c-35.2 0-64 28.8-64 64zM128 64v768c0 35.2 28.8 64 64 64v0c35.2 0 64-28.8 64-64v-768c0-35.2-28.8-64-64-64v0c-35.2 0-64 28.8-64 64z" data-tags="vDrag" />
<glyph unicode="&#xe603;" d="M1011.43 69.188l-196.246 196.371c-16.75 16.625-43.75 16.625-60.375 0l-1.125-1.121-81.078 81.078-0.441-0.441c116.887 145.762 109.5 358.242-25.684 493.426-144.93 144.875-379.996 144.992-524.926 0-144.992-144.992-144.934-379.996 0-524.984 134.598-134.539 345.977-142.574 491.699-27.137l0.109-0.105-1.043-1.043 81.285-81.285c-15.531-16.699-15.5-42.754 0.828-59.137l196.309-196.246c16.688-16.75 43.688-16.75 60.375 0l60.312 60.25c16.687 16.75 16.75 43.75 0 60.375zM569.937 390.117c-102.703-102.699-269.199-102.699-371.84 0-102.645 102.699-102.703 269.199 0 371.902 102.641 102.582 269.137 102.582 371.84-0.125 102.641-102.578 102.703-269.078 0-371.777z" data-tags="Zoom" />
<glyph unicode="&#xe604;" d="M1012.288 448c0-64.224-52.064-116.288-116.288-116.288s-116.288 52.064-116.288 116.288c0 64.224 52.064 116.288 116.288 116.288s116.288-52.064 116.288-116.288zM244.29 448c0-64.225-52.065-116.29-116.29-116.29s-116.29 52.065-116.29 116.29c0 64.225 52.065 116.29 116.29 116.29s116.29-52.065 116.29-116.29zM628.29 448c0-64.225-52.065-116.29-116.29-116.29s-116.29 52.065-116.29 116.29c0 64.225 52.065 116.29 116.29 116.29s116.29-52.065 116.29-116.29z" data-tags="Mosaic Rule Three Dots" />
<glyph unicode="&#xe605;" d="M628.288 64c0-64.224-52.064-116.288-116.288-116.288s-116.288 52.064-116.288 116.288c0 64.224 52.064 116.288 116.288 116.288s116.288-52.064 116.288-116.288zM628.29 832c0-64.225-52.065-116.29-116.29-116.29s-116.29 52.065-116.29 116.29c0 64.225 52.065 116.29 116.29 116.29s116.29-52.065 116.29-116.29zM628.29 448c0-64.225-52.065-116.29-116.29-116.29s-116.29 52.065-116.29 116.29c0 64.225 52.065 116.29 116.29 116.29s116.29-52.065 116.29-116.29z" data-tags="Direction Drag Handles" />
<glyph unicode="&#xe606;" d="M381.668 256l-220.238 220.238-95.996-96 316.234-316.238 616.852 616.727-96.008 96.008z" data-tags="Check Mark" />
<glyph unicode="&#xe607;" d="M704 0.001l-448.001 448 448.001 447.999v-895.999z" data-tags="Left Arrow" />
<glyph unicode="&#xe608;" d="M320.002 895.998l448-447.999-448.002-447.997 0.002 895.996z" data-tags="Right Arrow" />
<glyph unicode="&#xe609;" d="M960 640l-448-448-448 448h896z" data-tags="Down Arrow" />
<glyph unicode="&#xe60a;" d="M64 192.001l448 448 448-448.001-896 0.001z" data-tags="Up Arrow" />
<glyph unicode="&#xe60b;" d="M858.496 575.997l-218.499 218.499-255.999-255.999-255.999 255.999v-730.496h730.496l-255.999 255.999 255.999 255.999z" data-tags="Overview 1" />
<glyph unicode="&#xe60c;" d="M640.001 538.497l-255.999 255.999-218.499-218.499 255.999-255.999-255.999-255.999h730.496v730.496l-255.999-255.999z" data-tags="Overview 2" />
<glyph unicode="&#xe60d;" d="M858.496 832h-730.496v-730.496l255.999 255.999 255.999-255.999 218.499 218.499-255.999 255.999 255.999 255.999z" data-tags="Overview 3" />
<glyph unicode="&#xe60e;" d="M165.504 832l255.999-255.999-255.999-255.999 218.499-218.499 255.999 255.999 255.999-255.999v730.496h-730.496z" data-tags="Overview 4" />
<glyph unicode="&#xe60f;" d="M64 832v-768h896v768h-896zM896 128h-768v512h768v-512z" data-tags="Maximize" />
<glyph unicode="&#xe610;" d="M1024 896h-704v-256h-320v-640h704v256h320v640zM640 64h-576v448h576v-448zM960 320h-256v320h-320v128h576v-448z" data-tags="Minimize" />
<glyph unicode="&#xe611;" d="M64 896v-896h896v896h-896zM832 128h-640v640h640v-640z" data-tags="Checkbox Unchecked" />
<glyph unicode="&#xe612;" d="M64 896v-896h896v896h-896zM832 128h-640v640h640v-640zM415.75 219.316l-159.688 171.084 64 64 95.223-99.837 284.844 284.812 67.871-67.875-352.25-352.184z" data-tags="Checkbox Checked" />
<glyph unicode="&#xe613;" d="M512 870.4c-233.272 0-422.4-189.059-422.4-422.4 0-233.198 189.128-422.4 422.4-422.4s422.4 189.202 422.4 422.4c0 233.341-189.128 422.4-422.4 422.4zM512 112.761c-184.84 0-335.239 150.465-335.239 335.239 0 184.905 150.399 335.239 335.239 335.239 184.836 0 335.239-150.334 335.239-335.239 0-184.774-150.403-335.239-335.239-335.239z" data-tags="Radio Unchecked" />
<glyph unicode="&#xe614;" d="M691.2 448c0-98.817-80.383-179.2-179.2-179.2s-179.2 80.383-179.2 179.2 80.383 179.2 179.2 179.2 179.2-80.383 179.2-179.2zM934.4 448c0-233.198-189.128-422.4-422.4-422.4s-422.4 189.202-422.4 422.4c0 233.341 189.128 422.4 422.4 422.4s422.4-189.059 422.4-422.4zM847.239 448c0 184.905-150.403 335.239-335.239 335.239-184.84 0-335.239-150.334-335.239-335.239 0-184.774 150.399-335.239 335.239-335.239 184.836 0 335.239 150.465 335.239 335.239z" data-tags="Radio Checked" />
<glyph unicode="&#xe615;" d="M512 947.203c-275.715 0-499.199-223.484-499.199-499.203 0-275.715 223.484-499.203 499.199-499.203 275.723 0 499.199 223.488 499.199 499.203 0 275.719-223.477 499.203-499.199 499.203zM512 25.598c-232.914 0-422.398 189.496-422.398 422.402 0 232.914 189.484 422.406 422.398 422.406s422.398-189.492 422.398-422.406c0-232.906-189.484-422.402-422.398-422.402zM576 346.824l192.001 199.615v-161.751c-92.626-93.188-255.971-256.689-255.971-256.689s-160.032 161.997-256.033 255.439v163.376l192.002-199.982v421.171h128.001v-421.178z" data-tags="Circled Down Arrow" />
<glyph unicode="&#xe616;" d="M512 947.203c-275.715 0-499.199-223.484-499.199-499.203 0-275.715 223.484-499.203 499.199-499.203 275.723 0 499.199 223.488 499.199 499.203 0 275.719-223.477 499.203-499.199 499.203zM512 25.598c-232.914 0-422.398 189.496-422.398 422.402 0 232.914 189.484 422.406 422.398 422.406s422.398-189.492 422.398-422.406c0-232.906-189.484-422.402-422.398-422.402zM832 512v-128h-421.171l199.984-192h-163.375c-93.437 96-255.437 256.031-255.437 256.031s163.5 163.344 256.687 255.969h161.75l-199.617-192h421.179z" data-tags="Circled Left Arrow" />
<glyph unicode="&#xe617;" d="M512 947.203c-275.715 0-499.199-223.484-499.199-499.203 0-275.715 223.484-499.203 499.199-499.203 275.723 0 499.199 223.488 499.199 499.203 0 275.719-223.477 499.203-499.199 499.203zM512 25.598c-232.914 0-422.398 189.496-422.398 422.402 0 232.914 189.484 422.406 422.398 422.406s422.398-189.492 422.398-422.406c0-232.906-189.484-422.402-422.398-422.402zM832 447.969c0 0-163.5-159.969-256.687-255.969h-161.75l199.617 192h-421.18v128h421.172l-199.984 192h163.375c93.437-93.312 255.437-256.031 255.437-256.031z" data-tags="Circled Right Arrow" />
<glyph unicode="&#xe618;" d="M691.125 704h76.875v-76.875l-179.218-179.16 179.218-179.215v-76.75h-76.875l-179.164 179.16-179.211-179.16h-76.75v76.75l179.156 179.215-179.156 179.16v76.875h76.75l179.211-179.211 179.164 179.211zM1011.199 448c0-275.715-223.477-499.203-499.199-499.203-275.715 0-499.199 223.488-499.199 499.203 0 275.719 223.484 499.203 499.199 499.203 275.723 0 499.199-223.484 499.199-499.203zM934.398 448c0 232.914-189.484 422.406-422.398 422.406s-422.398-189.492-422.398-422.406c0-232.906 189.484-422.402 422.398-422.402s422.398 189.496 422.398 422.402z" data-tags="Circled Close" />
<glyph unicode="&#xe619;" d="M0 960h384v-96h-221.289l221.289-215.121v-67.5l-5.375-5.379h-67.75l-214.875 221.129v-221.129h-96v384zM640 960v-96h221.285l-221.285-215.121v-67.5l5.375-5.379h67.75l214.875 221.129v-221.129h96v384h-384zM928 98.871l-214.875 221.129h-67.75l-5.375-5.375v-67.5l221.281-215.125h-221.281v-96h384v384h-96v-221.129zM310.875 320l-214.875-221.129v221.129h-96v-384h384v96h-221.285l221.285 215.125v67.5l-5.375 5.375h-67.75z" data-tags="Fixed Zoom Out" />
<glyph unicode="&#xe61a;" d="M640 320h384v-96h-221.289l221.289-215.121v-67.5l-5.375-5.379h-67.754l-214.871 221.129v-221.129h-96v384zM0 224h221.285l-221.285-215.121v-67.5l5.375-5.379h67.75l214.875 221.129v-221.129h96v384h-384v-96zM288 738.871l-214.875 221.129h-67.75l-5.375-5.375v-67.5l221.281-215.125h-221.281v-96h384v384h-96v-221.129zM1024 954.625l-5.375 5.375h-67.754l-214.871-221.129v221.129h-96v-384h384v96h-221.285l221.285 215.125v67.5z" data-tags="Fixed Zoom In" />
<glyph unicode="&#xe61b;" d="M960 960v-448h-448v96h290.57c-56.672 96-165.215 172.812-290.57 172.812-113.141 0-212.25-57.496-272.328-144.066l-120.562 25.625c75.875 139.152 223.195 233.629 392.891 233.629 143.094 0 270.137-67.289 352-171.777v235.777h96zM512 115.188c-125.355 0-233.898 76.812-290.57 172.812h290.57v96h-448v-448h96v235.781c81.863-104.488 208.906-171.781 352-171.781 169.695 0 317.016 94.477 392.891 233.629l-120.563 25.625c-60.078-86.57-159.187-144.066-272.328-144.066z" data-tags="Ajzx Loader Arrow" />
<glyph unicode="&#xe61c;" d="M878.177 657.916l-158.525 158.525 52.864 52.789c29.172 29.165 76.422 29.165 105.586 0l52.789-52.789c29.24-29.172 29.24-76.421 0.075-105.586l-52.789-52.939zM157.58 249.769l-75.98-232.169 234.497 73.644-158.517 158.525zM654.543 745.201l-418.436-410.925 158.45-158.375 418.362 410.925-158.375 158.375z" data-tags="Editing Sketch Tool" />
<glyph unicode="&#xe61d;" d="M960 128v-64h-896v768h64v-704h64v448h192v-448h64v576h192v-576h64v256h192v-256h64z" data-tags="Chart" />
<glyph unicode="&#xe61e;" d="M511.978 960c-153.126 0-255.978-57.749-255.978-208v-544l255.978-272 256.022 272v543.834c0 0.081 0 0.081 0 0.166 0 150.251-102.853 208-256.022 208zM512 511.966c-77.773 0-140.792 63.044-140.792 140.834s63.019 140.834 140.792 140.834c77.772 0 140.791-63.044 140.791-140.834s-63.019-140.834-140.791-140.834z" data-tags="Map Pin" />
<glyph unicode="&#xe61f;" d="M511.978 960c-153.126 0-255.978-57.749-255.978-208v-544l255.978-272 256.022 272v543.834c0 0.081 0 0.081 0 0.166 0 150.251-102.853 208-256.022 208z" data-tags="Map Pin 2" />
<glyph unicode="&#xe620;" d="M64-64h832v640h-832v-640zM704 512h128v-128h-128v128zM704 320h128v-128h-128v128zM704 128h128v-128h-128v128zM512 512h128v-128h-128v128zM512 320h128v-128h-128v128zM512 128h128v-128h-128v128zM320 512h128v-128h-128v128zM320 320h128v-128h-128v128zM320 128h128v-128h-128v128zM128 512h128v-128h-128v128zM128 320h128v-128h-128v128zM128 128h128v-128h-128v128zM896 896v-256h-832v256h128v-128h192v128h192v-128h192v128h128zM320 832h-64v128h64v-128zM704 832h-64v128h64v-128z" data-tags="Generic Calendar" />
<glyph unicode="&#xe621;" d="M960 384h-384v-384h-128v384h-384v128h384v384h128v-384h384v-128z" data-tags="Zoom In" />
<glyph unicode="&#xe622;" d="M960 384h-896v128h896v-128z" data-tags="Zoom Out" />
<glyph unicode="&#xe623;" d="M576 768v-640l-448 319.965 448 320.035zM832 768h-128v-640h128v640z" data-tags="Reverse" />
<glyph unicode="&#xe624;" d="M832 768v-640l-448 319.965 448 320.035zM256 768h-128v-640h128v640z" data-tags="Beginning" />
<glyph unicode="&#xe625;" d="M832 832v-768h-192v768h192zM192 64h192v768h-192v-768z" data-tags="Pause" />
<glyph unicode="&#xe626;" d="M192 960l704-512.056-704-511.944v1024z" data-tags="Play" />
<glyph unicode="&#xe627;" d="M640 447.965l-448-319.965v640l448-320.035zM768 128h128v640h-128v-640z" data-tags="End" />
<glyph unicode="&#xe628;" d="M896 447.965l-448-319.965v640l448-320.035zM192 128h128v640h-128v-640z" data-tags="Forward" />
<glyph unicode="&#xe629;" d="M502.372 883.742l413.988-372.242-403.426-166.035c-3.937-1.441-7.875-2.309-11.5-2.309-8.125 0-15.437 3.059-21 8.746l-415.465 429.758 392.465 112.152c4.375 1.559 9 2.18 13.625 2.18 11.375 0 22.625-4.25 31.312-12.25zM995.425 200.32l-431.236-177.497c-5.508-2.254-11.383-3.437-17.258-3.437-12 0-23.75 4.812-32.5 13.812l-447.618 462.802c-4.375 4.508-7.75 9.82-9.875 15.816-19.125 51.628-58.999 144.744-56.874 205.243l424.744-439.115c20.062-20.75 48.187-32.812 76.936-32.812 13.812 0 27.507 2.816 40.687 8.191l434.744 179.306c29.312-76.811 78.499-207.813 18.25-232.309z" data-tags="Generic Eraser" />
<glyph unicode="&#xe62a;" d="M320 338.875l128 128v-146.875l-192-192-192 192v146.875l128-128v429.125h128v-429.125zM768 768l-192-237.125v-146.875l128 173.129v-429.129h128v429.129l128-173.129v146.875l-192 237.125z" data-tags="Up Down Arrows" />
<glyph unicode="&#xe62b;" d="M800 64h-160l-384 384 384 384h160l-384-384 384-384z" data-tags="Square Arrow Left" />
<glyph unicode="&#xe62c;" d="M224 832h160l384-384-384-384h-160l384 384-384 384z" data-tags="Square Arrow Right" />
<glyph unicode="&#xe62d;" d="M448 665.6c0 21.208 17.192 38.4 38.4 38.4h51.2c21.208 0 38.4-17.192 38.4-38.4v-243.2c0-21.208-17.192-38.4-38.4-38.4h-51.2c-21.208 0-38.4 17.192-38.4 38.4v243.2zM576 281.6c0 21.208-17.192 38.4-38.4 38.4h-51.2c-21.208 0-38.4-17.192-38.4-38.4v-51.2c0-21.208 17.192-38.4 38.4-38.4h51.2c21.208 0 38.4 17.192 38.4 38.4v51.2zM1011.199 448c0-275.715-223.477-499.203-499.199-499.203-275.715 0-499.199 223.488-499.199 499.203 0 275.719 223.484 499.203 499.199 499.203 275.723 0 499.199-223.484 499.199-499.203zM934.398 448c0 232.914-189.484 422.406-422.398 422.406s-422.398-189.492-422.398-422.406c0-232.906 189.484-422.402 422.398-422.402s422.398 189.496 422.398 422.402z" data-tags="Notice Round" />
<glyph unicode="&#xe62e;" d="M920.437 0.012c22.188 0 42.75 11.5 54.437 30.375 11.688 18.812 12.75 42.375 2.812 62.25l-408.375 816.875c-10.875 21.687-33 35.375-57.25 35.375s-46.375-13.688-57.25-35.375l-408.5-816.875c-9.937-19.812-8.875-43.375 2.812-62.25 11.625-18.875 32.25-30.375 54.437-30.375h816.875zM103.563 64.012l408.5 816.875 408.375-816.875h-816.875zM448 601.612c0 21.208 17.192 38.4 38.4 38.4h51.2c21.208 0 38.4-17.192 38.4-38.4v-243.2c0-21.208-17.192-38.4-38.4-38.4h-51.2c-21.208 0-38.4 17.192-38.4 38.4v243.2zM576 166.412c0-21.208-17.192-38.4-38.4-38.4h-51.2c-21.208 0-38.4 17.192-38.4 38.4v51.2c0 21.208 17.192 38.4 38.4 38.4h51.2c21.208 0 38.4-17.192 38.4-38.4v-51.2z" data-tags="Notice Triangle" />
<glyph unicode="&#xe62f;" d="M960 449.342v-513.342h-320v384h-256v-384h-320v512h-64l192 192v320h192v-128l128 128 512-510.658h-64z" data-tags="Home Extent" />
<glyph unicode="&#xe630;" d="M512 947.203c-275.715 0-499.199-223.484-499.199-499.203 0-275.715 223.484-499.203 499.199-499.203 275.723 0 499.199 223.488 499.199 499.203 0 275.719-223.477 499.203-499.199 499.203zM576 30.977v161.023h-128v-161.023c-181.641 27.805-325.219 171.387-353.020 353.023h161.020v128h-161.020c27.801 181.641 171.379 325.227 353.020 353.027v-161.027h128v161.027c181.641-27.801 325.219-171.387 353.020-353.027h-161.020v-128h161.020c-27.801-181.637-171.379-325.219-353.020-353.023z" data-tags="Locate" />
<glyph unicode="&#xe631;" d="M992 64h-160l-384 384 384 384h160l-384-384 384-384zM160 448l384 384h-160l-384-384 384-384h160l-384 384z" data-tags="Close Arrows" />
<glyph unicode="&#xe632;" d="M32 832h160l384-384-384-384h-160l384 384-384 384zM864 448l-384-384h160l384 384-384 384h-160l384-384z" data-tags="Open Arrows" />
<glyph unicode="&#xe633;" d="M127.911 704h-127.911v128h127.911v-128zM127.911 512h-127.911v-128h127.911v128zM127.911 192h-127.911v-128h127.911v128zM1023.911 192h-768v-128h768v128zM1023.911 512h-768v-128h768v128zM1023.911 832h-768v-128h768v128z" data-tags="Layer List" />
<glyph unicode="&#xe634;" d="M0 960v-448h447.709v448h-447.709zM383.709 578.559v-2.559h-154.578c15.047 28.113 33.359 64.867 53.633 89.332 25.211-35.5 53.648-65.668 100.945-86.773zM190.428 885.25c3.859-7.473 7.5-15.199 9.969-24.109 11.563-41.859 27.391-98.5 55.594-152.082-31.281-35.211-59.172-81.871-79.844-133.059h-112.437v184.82c79.656 27.594 110.234 89.27 126.719 124.43zM1023.709 960h-447.709v-448h447.709v448zM840.336 576c0.297 8.012 1.156 17.941 2.648 25.75 0.977 24.336 9.867 61.336 24.055 67.477 7.75 3.359 14.75 5.223 20.672 6.828 13.141 3.586 28.047 7.672 36.359 22.863 8.469 15.559 4.531 34.027-1.672 53.859 2.766 4.52 14.25 9.082 37.312 11.051v-187.828h-119.375zM959.711 812.73c-27.125-1.641-58.695-7.859-75.953-30.867-9.602-12.859-12.047-29.086-6.859-45.695 1.758-5.555 2.672-9.418 3.172-12.027-1.688-0.5-3.555-1-5.141-1.445-7.75-2.141-16.891-4.695-27.047-9.086-47.586-20.582-52.672-95.301-52.734-105.941-1.070-5.172-3.406-13.828-3.266-31.668h-65.469c3.078 15.867 3.125 20.812 2.625 26.555 1.867 18.195 8.031 108.914-49.883 139.004 5.008 1.773 9.633 3.137 12.25 3.5 86.523 4.082 107.102 79.746 114.227 118.305 3.242 17.578 21.516 27.164 40.383 32.637h113.695v-83.27zM1023.709 384h-447.709v-448h447.709v448zM700.983 107.75l54.195-107.75h-115.469v320h10.781l139.883-85.168-86.133-100.5c-6.344-7.391-7.609-17.883-3.258-26.582zM743.467 320h216.242v-131.625l-216.242 131.625zM0 384v-448h447.709v448h-447.709zM374.85 284.531c-0.109-0.391-11.891-36.75-54.031-43.754-39.219-6.523-58.828-32.527-66.219-59.164-48.031 15.445-92.672 7.586-123.453-23.059-36.547-36.414-44.078-96.445-18.25-146 1.422-2.734 3.063-8.082 4.25-12.555h-53.437v320h320.289v-4.074c-11.664-16.441-8.641-29.836-9.148-31.395z" data-tags="Basemap" />
<glyph unicode="&#xe635;" d="M1024 640v-704h-704v64h640v640h64zM832 768v-640h-640v-64h704v704h-64zM768 896v-704h-704v704h704zM704 632.41v199.59h-173.453c22.141-64 9.609-70.844 5.016-76.145-4.453-5.203-11.227-8.766-18.328-10.219-8.734-7.641-26.406-31.363-31.219-48.090-4.5-15.52-14.547-27.52-28.312-33.848-24.672-11.391-52.391-0.375-58.937 2.625-3.031-9.367-7.75-19.453-15.273-29.949-16.539-22.973-36.852-28.129-51.008-28.402-37.328-0.336-71.437 33.559-83.797 48.090 7.375-19.832 12.734-45.422 5.188-63.426-1.859-4.406-4.453-8.34-7.594-11.668 32.781 2.668 59.914-12.52 72.453-33.707 14.625-24.695 12.937-62.016-23.859-89.625-9.641-7.215-14.156-13.402-15.922-18.465 37.656-5.812 65.773-26.957 74.375-57.375 9.258-32.809-6.664-66.891-40.57-86.855-1.078-0.633-10.734-6.937-21.852-38.941h267.969c-0.063 32.004-0.141 36.047-0.344 36.312-3.516 4.832-13.563 7.73-27.578 7.969-52.188 0.984-76.281 33.23-81.422 63.043-6.891 40.125 15.211 83.957 50.406 103.41-17.359 22.496-6.484 39.324-0.328 46.121 2.203 2.391 5.82 5.812 10.273 9.895 25.367 23.293 30.961 33.422 31.195 37.781-1.172 22.543 7.828 42.090 24.727 53.48 11.133 7.551 34.828 17.16 72.523 2.484 0.805 1.312 1.578 2.676 2.266 3.844 2.938 5.070 33.727 8.754 63.406 12.070z" data-tags="Collection" />
<glyph unicode="&#xe636;" d="M435.065 783.943c-26.348-1.4-22.774 27.73-24.215 36.972 0 0 9.972 7.089 15.682 9.222 5.647 2.133 24.153 2.133 27.724-9.222 3.5-11.375 7.092-35.531-19.191-36.972zM499.681 726.413c15.643 11.339 33.476-0.727 46.233 0 12.784 0.694 15.604 17.043 21.314 25.556 5.686 8.551 30.512 19.908 18.464 31.974-12.105 12.072-70.368 20.602-85.278 1.442-7.61-9.838-31.301-37.008-43.37-42.641-12.066-5.665-5.686-27.724 2.171-29.13 7.839-1.439 24.829 1.406 40.466 12.799zM570.838 656.007c-4.265-5.013 2.133-15.679 16.296-15.679 0-10.666 2.865-27.727 17.064-24.135 14.199 3.571 15.661 24.174-2.133 35.549-8.319 5.305-17.025 29.133-31.227 4.265zM1000.001 447.999c0-269.515-218.484-487.999-488.001-487.999s-488.001 218.484-488.001 487.999c0 269.518 218.484 488.001 488.001 488.001s488.001-218.484 488.001-488.001zM512 38.058c41.935 0 82.398 6.386 120.526 18.142-1.004 3.104-2.216 6.404-4.215 10.023-11.315 20.582-16.37 62.528-4.995 73.194 11.315 10.663 16.313 38.372 7.822 45.5-8.53 7.053 5.728 19.197 7.107 26.962 7.878 29.169-7.798 30.572-31.954 37.699-24.135 7.074-48.306-2.859-79.568-3.571-31.343-0.694-44.106 44.079-47.639 51.844-11.357 7.125-26.962 17.829-24.829 33.434 2.133 15.679 16.298 29.13 17.028 31.995-2.824 9.239 0 26.265 4.268 31.974 7.065 26.994 41.905 44.752 53.304 49.765 4.301 18.47 40.502 36.222 49.032 32.627 8.498-3.533 16.337-17.022 29.863 0 13.43 17.106 22.002 12.108 42.641 12.108 20.561 0 26.92-9.972 33.359-29.13 6.359-19.179 51.171-22.002 51.898-17.776 9.186 30.533 34.801 7.131 39.76 7.131 29.881 2.094 33.395 14.89 29.881 32.665-3.539 17.773-33.398 8.533-36.972 16.334-2.746 6.13-9.224 19.908-12.799 12.796-3.533-7.092-15.602-22.020-23.441-2.094-7.822 19.87-29.824 42.602-35.528 39.066-8.533-12.108-19.238-12.069-24.156-8.53-19.905 14.931-34.801-0.733-43.367-9.245-8.498-8.531-21.43-22.595-39.894-27.632-18.464-4.935-30.572 7.842-32.707 26.327-2.133 18.485 14.357 33.973 30.688 25.481 16.373-8.533 30.536-1.427 23.444 5.665-7.071 7.131-12.066 27.036-2.806 30.536 9.165 3.553 15.604 0 31.227 21.329 15.643 21.329 33.416 14.237 54.016 10.663 20.599-3.556 14.928 30.572 13.487 36.969-1.439 6.401-26.268 20.602-28.4 15.643-2.115-4.959 3.539-27.709-8.533-33.413-12.105-5.728-24.171 13.543-34.086 24.883-10.047 11.357 9.224 22.020 11.357 27.727 5.671 20.599 29.148 37.66 51.171 26.268 21.984-11.414 26.268-2.844 24.865 0.73-11.393 13.511-11.047 37.854 0 49.729 6.886 7.417 13.374 12.132 19.453 14.997-65.691 44.794-144.971 71.065-230.305 71.065-86.294 0-166.333-26.95-232.453-72.67 21.29 9.49 69.006 13.493 70.237 3.673 1.403-11.396 1.403-41.217 11.375-35.531 8.492 4.265 18.467 28.439 41.199 11.336 22.729-17.022-4.265-38.334-11.357-49.726-7.148-11.417-9.993-29.842-34.149-21.308-24.171 8.527-28.397-2.827-29.842-11.357-1.421-8.533-17.022-15.643-36.949-9.975-19.908 5.668-52.517-25.52-68.196-41.199-8.53-8.53-75.866-29.514-66.061 14.931 0.566 2.576 1.174 4.504 1.754 6.874-25.958-44.711-43.567-94.681-51.034-147.973 18.946-5.752 58.632-16.564 65.59-47.195 8.513-12.799 25.538-52.592 42.641-73.921 27.441-34.322 8.626-50.96 11.378-78.189 14.178-7.092 35.489-22.714 56.818-34.128 21.329-11.357 36.972-41.199 4.304-52.571-7.131-5.692 1.367-32.728-12.799-38.393-11.756-4.664-27.837-24.105-42.715-30.953 73.385-68.986 171.831-111.605 280.258-111.605zM921.917 447.999c0 6.207-0.658 12.251-0.932 18.392-9.921 0.283-22.857 2.69-31.167 4.858-13.472 3.592-23.423-10.624-17.064-15.604 6.398-4.953 21.368-10.624 22.771-19.885 1.424-9.242-14.199-51.171-22.771-66.776-8.513-15.682-18.464-17.064-23.444-9.972-4.918 7.107-14.199 41.908-24.862 61.837-10.666 19.867-12.069 4.265-8.534-8.572 3.613-12.757 19.906-61.795 24.903-76.033 20.599-4.268 23.423-6.401 29.842-12.799 6.359-6.398-1.439-14.931-12.778-31.227-11.396-16.37-51.865-91.006-53.998-104.475-1.025-6.484 0.164-16.507-0.456-27.602 73.176 74.085 118.489 175.751 118.489 287.857z" data-tags="Globe" />
<glyph unicode="&#xe637;" d="M1024 36.155c0 0-204.828 102.338-512.038 0-307.169-102.421-511.997 0-511.997 0l136.531 819.155c0 0 204.807-68.29 375.466 0 170.638 68.253 375.466 0 375.466 0l136.572-819.155z" data-tags="Feature Layer" />
<glyph unicode="&#xe638;" d="M691.403 704l76.968-76.875-179.219-179.16 179.219-179.215-76.968-76.75-179.164 179.16-179.211-179.16-76.657 76.75 179.156 179.215-179.156 179.16 76.657 76.875 179.211-179.211 179.164 179.211zM1024 620.801v-345.602l-275.016-339.199h-473.602l-275.383 339.199v345.602l275.383 339.199h473.602l275.016-339.199zM947.203 282.086v331.828l-218.328 269.285h-433.391l-218.688-269.344v-331.711l218.688-269.344h433.391l218.328 269.285z" data-tags="Error" />
<glyph unicode="&#xe639;" d="M768 192l-256-256-256 256h192v320h128v-320h192zM866.555 678.633c-20.852 151.922-143.5 268.672-292.117 268.672-111.375 0-208.125-65.418-258.641-161.961-13.875 3.754-28.172 6.379-42.977 6.379-81.992 0-143.039-61.109-148.672-138.449-69.508-35.684-117.75-107.785-117.75-191.082 0-113.195 92.492-206.191 185.633-206.191 22.367 0 43.531 0 63.969 0 22.203 0 43.516 0 64 0v76.812h-128c-49.312 0-108.812 57.688-108.812 129.375 0 51.656 29.125 98.688 76 122.781l38.375 19.719 3.188 43.031c2.875 39.563 32.5 67.188 72.063 67.188 6.188 0 13.688-1.188 22.937-3.688l59.563-16.094 28.563 54.625c38.937 74.5 112 120.75 190.563 120.75 107.312 0 200.188-86.969 216.063-202.344l6.5-47.5 45.563-14.969c58.75-19.375 98.25-74.563 98.25-137.344 0-75.094-59.5-135.531-108.812-135.531h-128v-76.813c24.445 0 45 0 64 0 22.891 0 43.383 0 64 0 90.797 0 185.602 93.941 185.602 212.34 0 98.262-63.414 181.445-151.047 210.293z" data-tags="Download" />
<glyph unicode="&#xe63a;" d="M768 704h-512v64h512v-64zM704 576v64h-384v-64h384zM64 896h895.969v-384h64v448h-1023.969v-640h384v64h-320v512zM1024 224c0 158.812-129.188 288-288 288s-288-129.188-288-288c0-76.875 29.937-149.219 84.375-203.656l4.5-4.531 58.875 58.906-4.563 4.531c-38.688 38.75-60 90.156-60 144.75 0 112.969 91.875 204.844 204.812 204.844s204.812-91.875 204.812-204.844c0-55.035-22.516-106.297-60.75-144.059l-112.062 112.059v-256h256l-85.297 85.301c53.141 52.891 85.297 125.234 85.297 202.699z" data-tags="Resend Invitation" />
<glyph unicode="&#xe63b;" d="M512 947.203c-275.719 0-499.203-223.484-499.203-499.203 0-275.715 223.484-499.203 499.203-499.203s499.203 223.488 499.203 499.203c0 275.719-223.484 499.203-499.203 499.203zM512 870.406c98.031 0 188.141-33.863 259.891-90.109l-592.188-592.184c-56.242 71.754-90.102 161.859-90.102 259.887 0 232.914 189.484 422.406 422.398 422.406zM512 25.598c-98.031 0-188.133 33.863-259.891 90.109l592.188 592.18c56.234-71.754 90.102-161.855 90.102-259.887 0-232.906-189.484-422.402-422.398-422.402z" data-tags="Deny" />
<glyph unicode="&#xe63c;" d="M1000 448c0-269.553-218.448-488-488-488-269.554 0-488 218.447-488 488s218.446 488 488 488c269.552 0 488-218.447 488-488zM750.623 697.625l-331.002-331.001-133.37 133.625-74.381-74.374 207.75-207.75 405.376 405.127-74.374 74.374z" data-tags="Grant" />
<glyph unicode="&#xe63d;" d="M896 256h-233.023c-10.293 7.352-21.199 13.633-33.164 17.437 6.41 15.219 11.387 30.828 15.672 46.563h250.516v-64zM896 448h-239.16c1.758-21.297 2.133-42.656 0.203-64h238.957v64zM896 576h-273.586c9.844-20.699 17.426-42.102 23.215-64h250.371v64zM1024 729.625v-601.625h-229.727l-63.945 64h229.672v448h-256v256h-256v-146.582c-20.664 9.633-41.879 18.066-64 23.973v186.609h409.625l230.375-230.375zM960 723.812l-172.129 172.188h-19.871v-192h192v19.812zM756.527-6.836l-45.81-45.762c-12.675-12.722-33.182-12.722-45.857 0l-141.076 141.029c-12.402 12.443-12.426 32.233-0.629 44.917l-61.739 61.74 0.792 0.792-0.083 0.080c-110.682-87.68-271.233-81.577-373.466 20.611-110.083 110.125-110.128 288.62 0 398.747 110.080 110.128 288.623 110.039 398.703 0 102.678-102.678 108.288-264.065 19.508-374.777l0.335 0.335 61.582-61.582 0.854 0.852c12.627 12.627 33.135 12.627 45.857 0l141.029-141.123c12.722-12.627 12.675-33.135 0-45.857zM429.224 557.133c-78.007 78.010-204.468 78.010-282.428 0.095-78.007-78.007-77.963-204.471 0-282.475 77.96-78.004 204.421-78.004 282.428 0s77.96 204.468 0 282.38z" data-tags="Review" />
<glyph unicode="&#xe63e;" d="M1000 448c0-269.69-218.439-488-488-488s-488 218.31-488 488c0 269.561 218.438 488 488 488s488-218.439 488-488zM576 192v384h-128v-384h-64v-64h256v64h-64zM576 768h-128v-128h128v128z" data-tags="Description" />
<glyph unicode="&#xe63f;" d="M960.011 768h-64v-448h-320v-192h128v-128h-384v128h128v192h-320v448h-64v128h896v-128zM768.011 448v320h-512v-320h512z" data-tags="Media" />
</font>
</defs>
</svg>
